{"title":"The League S06E07 720p WEBRip x264-xRed","uid":11254335,"size":414587264,"categoryP":"video","categoryS":"hd___tv_shows","magnet":"?xt=urn:btih:618f62793b8b4525cd846e1b459dac5bc343c8a6&amp;dn=The+League+S06E07+720p+WEBRip+x264-xRed&amp;tr=udp%3A%2F%2Ftracker.openbittorrent.com%3A80&amp;tr=udp%3A%2F%2Fopen.demonii.com%3A1337&amp;tr=udp%3A%2F%2Ftracker.coppersurfer.tk%3A6969&amp;tr=udp%3A%2F%2Fexodus.desync.com%3A6969","seeders":4,"leechers":0,"uploader":"xredm","files":4,"time":1413876716,"description":"Encoded by xRed of www . xRedMedia . com\n\nIf in doubt, check the torrent @ KickAss [ VUL @ KickAss ]\n\nPlease Seed As Much As You Can!\n\nEncoders Note:\nI need your help in funding my SeedBox. If you have spares that you can share, [b]please donate via BitCoin @ 1EdjqFaZtSYVWhWRnYVvjP9qRsh7si1UB4[/b]\nAll Funds will go to the SeedBox\n\n[code]Video\nID                                       : 1\nFormat                                   : AVC\nFormat/Info                              : Advanced Video Codec\nFormat profile                           : &lt;a class=&quot;__cf_email__&quot; href=&quot;/cdn-cgi/l/email-protection&quot; data-cfemail=&quot;226a4b454a626e160c13&quot;&gt;[email&amp;#160;protected]&lt;/a&gt;&lt;script cf-hash='f9e31' type=&quot;text/javascript&quot;&gt;\n/* &lt;![CDATA[ */!function(){try{var t=&quot;currentScript&quot;in document?document.currentScript:function(){for(var t=document.getElementsByTagName(&quot;script&quot;),e=t.length;e--;)if(t[e].getAttribute(&quot;cf-hash&quot;))return t[e]}();if(t&amp;&amp;t.previousSibling){var e,r,n,i,c=t.previousSibling,a=c.getAttribute(&quot;data-cfemail&quot;);if(a){for(e=&quot;&quot;,r=parseInt(a.substr(0,2),16),n=2;a.length-n;n+=2)i=parseInt(a.substr(n,2),16)^r,e+=String.fromCharCode(i);e=document.createTextNode(e),c.parentNode.replaceChild(e,c)}}}catch(u){}}();/* ]]&gt; */&lt;/script&gt;\nFormat settings, CABAC                   : Yes\nFormat settings, ReFrames                : 4 frames\nCodec ID                                 : avc1\nCodec ID/Info                            : Advanced Video Coding\nDuration                                 : 23mn 4s\nBit rate                                 : 2 223 Kbps\nWidth                                    : 1 280 pixels\nHeight                                   : 720 pixels\nDisplay aspect ratio                     : 16:9\nFrame rate mode                          : Variable\nFrame rate                               : 23.976 fps\nColor space                              : YUV\nChroma subsampling                       : 4:2:0\nBit depth                                : 8 bits\nScan type                                : Progressive\nBits/(Pixel*Frame)                       : 0.101\nStream size                              : 367 MiB (93%)\nWriting library                          : x264 core 142 r2409+42 04be48a tMod [8-bit@4:2:0 X86_64]\n\nAudio\nID                                       : 2\nFormat                                   : AAC\nFormat/Info                              : Advanced Audio Codec\nFormat profile                           : LC\nCodec ID                                 : 40\nDuration                                 : 23mn 4s\nBit rate mode                            : Constant\nBit rate                                 : 164 Kbps\nChannel(s)                               : 2 channels\nChannel(s)_Original                      : 6 channels\nChannel positions                        : Front: L C R, Side: L R, LFE\nSampling rate                            : 48.0 KHz\nCompression mode                         : Lossy\nStream size                              : 27.2 MiB (7%)\nLanguage                                 : English\n\n[/code]","torrent":{"xt":"urn:btih:618f62793b8b4525cd846e1b459dac5bc343c8a6","amp;dn":"The+League+S06E07+720p+WEBRip+x264-xRed","amp;tr":["udp%3A%2F%2Ftracker.openbittorrent.com%3A80","udp%3A%2F%2Fopen.demonii.com%3A1337","udp%3A%2F%2Ftracker.coppersurfer.tk%3A6969","udp%3A%2F%2Fexodus.desync.com%3A6969"],"infoHash":"618f62793b8b4525cd846e1b459dac5bc343c8a6","infoHashBuffer":{"type":"Buffer","data":[97,143,98,121,59,139,69,37,205,132,110,27,69,157,172,91,195,67,200,166]},"announce":[],"urlList":[]}}